<svg width="50" height="50" viewBox="0 0 50 50" fill="none" xmlns="http://www.w3.org/2000/svg">
<path d="M16.1738 36.1959C21.697 32.296 18.9575 23.4594 12.1093 23.4375C5.26821 23.4591 2.52367 32.2832 8.03434 36.1878C6.66452 36.9181 5.51986 38.0081 4.72362 39.3407C3.92739 40.6732 3.50975 42.1977 3.51569 43.75V46.0938C3.51564 46.2479 3.56118 46.3985 3.64657 46.5268C3.73197 46.6551 3.85339 46.7553 3.99558 46.8147C6.56531 47.89 9.32379 48.4417 12.1094 48.4375C14.8943 48.4338 17.6512 47.8824 20.2233 46.8147C20.3655 46.7553 20.4869 46.6551 20.5723 46.5268C20.6577 46.3985 20.7032 46.2479 20.7032 46.0938V43.75C20.7051 42.1983 20.2846 40.6753 19.4866 39.3445C18.6886 38.0137 17.5434 36.9252 16.1738 36.1959ZM6.64069 30.4688C6.64238 29.0189 7.21909 27.6289 8.24432 26.6036C9.26954 25.5784 10.6596 25.0017 12.1094 25C19.3545 25.2751 19.3525 35.6635 12.1094 35.9375C10.6595 35.9358 9.26951 35.3591 8.24429 34.3339C7.21908 33.3086 6.64237 31.9186 6.64069 30.4688ZM19.1407 45.5658C14.6149 47.307 9.60398 47.307 5.07819 45.5658V43.75C5.08647 42.2892 5.54658 40.8667 6.39537 39.6778C7.24417 38.4888 8.44007 37.5916 9.819 37.1093C11.3001 37.6241 12.9114 37.625 14.393 37.1119C15.777 37.5863 16.9784 38.4809 17.8295 39.6709C18.6806 40.8609 19.139 42.287 19.1407 43.75V45.5658Z" fill="#BB9078"/>
<path d="M41.955 14.3209C47.4783 10.421 44.7388 1.58438 37.8906 1.5625C31.0495 1.58405 28.3049 10.4082 33.8156 14.3128C32.4458 15.0431 31.3011 16.1331 30.5049 17.4657C29.7086 18.7982 29.291 20.3227 29.2969 21.875V24.2188C29.2969 24.3729 29.3424 24.5235 29.4278 24.6518C29.5132 24.7801 29.6346 24.8803 29.7768 24.9397C32.3466 26.015 35.105 26.5667 37.8907 26.5625C40.6755 26.5588 43.4325 26.0074 46.0045 24.9397C46.1467 24.8803 46.2682 24.7801 46.3536 24.6518C46.4389 24.5235 46.4845 24.3729 46.4844 24.2188V21.875C46.4864 20.3233 46.0658 18.8003 45.2678 17.4695C44.4699 16.1387 43.3247 15.0502 41.955 14.3209ZM32.4219 8.59375C32.4236 7.14387 33.0003 5.75385 34.0256 4.72863C35.0508 3.7034 36.4408 3.12669 37.8907 3.125C45.1357 3.40009 45.1337 13.7885 37.8906 14.0625C36.4408 14.0608 35.0508 13.4841 34.0255 12.4589C33.0003 11.4336 32.4236 10.0436 32.4219 8.59375ZM38.6719 15.5789V16.4062C38.6719 16.6135 38.5896 16.8122 38.4431 16.9587C38.2966 17.1052 38.0979 17.1875 37.8907 17.1875C37.6835 17.1875 37.4848 17.1052 37.3383 16.9587C37.1917 16.8122 37.1094 16.6135 37.1094 16.4062V15.5789C37.6285 15.6394 38.1529 15.6394 38.6719 15.5789ZM44.9219 23.6908C40.3961 25.4321 35.3852 25.4321 30.8594 23.6908V21.875C30.8677 20.4238 31.3219 19.0103 32.1603 17.8258C32.9988 16.6413 34.181 15.7432 35.5469 15.2531V16.4062C35.5469 17.0279 35.7939 17.624 36.2334 18.0635C36.6729 18.5031 37.2691 18.75 37.8907 18.75C38.5123 18.75 39.1084 18.5031 39.548 18.0635C39.9875 17.624 40.2344 17.0279 40.2344 16.4062V15.2593C41.604 15.7419 42.7902 16.6373 43.6297 17.8221C44.4692 19.007 44.9206 20.4229 44.9219 21.875V23.6908Z" fill="#BB9078"/>
<path d="M40.2344 20.3125C40.2343 20.4151 40.2545 20.5167 40.2938 20.6115C40.333 20.7063 40.3906 20.7924 40.4631 20.865C40.5357 20.9375 40.6218 20.9951 40.7166 21.0343C40.8114 21.0736 40.913 21.0938 41.0156 21.0938H43.3594C43.5666 21.0938 43.7653 21.0114 43.9118 20.8649C44.0583 20.7184 44.1406 20.5197 44.1406 20.3125C44.1406 20.1053 44.0583 19.9066 43.9118 19.7601C43.7653 19.6136 43.5666 19.5313 43.3594 19.5313H41.0156C40.913 19.5312 40.8114 19.5514 40.7166 19.5907C40.6218 19.6299 40.5357 19.6875 40.4631 19.76C40.3906 19.8326 40.333 19.9187 40.2938 20.0135C40.2545 20.1083 40.2343 20.2099 40.2344 20.3125Z" fill="#BB9078"/>
<path d="M24.4747 20.2156C25.3079 19.1867 24.3172 18.2671 24.0891 17.1875H25.3906C26.2192 17.1866 27.0135 16.8571 27.5994 16.2712C28.1852 15.6854 28.5147 14.891 28.5156 14.0625V4.6875C28.5147 3.85897 28.1852 3.06463 27.5994 2.47877C27.0135 1.89291 26.2192 1.56338 25.3906 1.5625H8.20312C7.37459 1.56338 6.58025 1.89291 5.99439 2.47877C5.40853 3.06463 5.07901 3.85897 5.07812 4.6875V14.0625C5.07901 14.891 5.40853 15.6854 5.99439 16.2712C6.58025 16.8571 7.37459 17.1866 8.20312 17.1875H18.3758C18.8291 18.0625 19.4604 18.8329 20.2292 19.4494C20.998 20.0659 21.8872 20.5148 22.8397 20.7672C23.1362 20.8482 23.4501 20.839 23.7413 20.7407C24.0325 20.6425 24.2879 20.4597 24.4747 20.2156ZM19.5732 16.0835C19.5112 15.9468 19.4112 15.8309 19.285 15.7495C19.1588 15.6682 19.0119 15.625 18.8618 15.625H8.20312C7.78887 15.6245 7.39172 15.4598 7.09879 15.1668C6.80587 14.8739 6.6411 14.4768 6.64062 14.0625V4.6875C6.6411 4.27324 6.80587 3.87609 7.09879 3.58317C7.39172 3.29025 7.78887 3.12547 8.20312 3.125H25.3906C25.8049 3.12547 26.202 3.29025 26.495 3.58317C26.7879 3.87609 26.9527 4.27324 26.9531 4.6875V14.0625C26.9527 14.4768 26.7879 14.8739 26.495 15.1668C26.202 15.4598 25.8049 15.6245 25.3906 15.625H23.1457C21.5308 15.7343 22.9115 18.6232 23.2574 19.2612C22.4437 19.0431 21.6898 18.644 21.0518 18.0938C20.4139 17.5436 19.9084 16.8564 19.5732 16.0835Z" fill="#BB9078"/>
<path d="M23.8281 7.8125C23.8282 7.7099 23.808 7.60829 23.7687 7.5135C23.7295 7.4187 23.6719 7.33256 23.5994 7.26001C23.5268 7.18746 23.4407 7.12992 23.3459 7.09066C23.2511 7.05141 23.1495 7.03122 23.0469 7.03125H10.5469C10.3397 7.03125 10.141 7.11356 9.99445 7.26007C9.84794 7.40659 9.76562 7.6053 9.76562 7.8125C9.76562 8.0197 9.84794 8.21841 9.99445 8.36493C10.141 8.51144 10.3397 8.59375 10.5469 8.59375H23.0469C23.1495 8.59378 23.2511 8.57359 23.3459 8.53434C23.4407 8.49508 23.5268 8.43754 23.5994 8.36499C23.6719 8.29244 23.7295 8.2063 23.7687 8.1115C23.808 8.01671 23.8282 7.9151 23.8281 7.8125Z" fill="#BB9078"/>
<path d="M23.8281 10.9375C23.8282 10.8349 23.808 10.7333 23.7687 10.6385C23.7295 10.5437 23.6719 10.4576 23.5994 10.385C23.5268 10.3125 23.4407 10.2549 23.3459 10.2157C23.2511 10.1764 23.1495 10.1562 23.0469 10.1563H16.7969C16.5897 10.1563 16.391 10.2386 16.2444 10.3851C16.0979 10.5316 16.0156 10.7303 16.0156 10.9375C16.0156 11.1447 16.0979 11.3434 16.2444 11.4899C16.391 11.6364 16.5897 11.7188 16.7969 11.7188H23.0469C23.1495 11.7188 23.2511 11.6986 23.3459 11.6593C23.4407 11.6201 23.5268 11.5625 23.5994 11.49C23.6719 11.4174 23.7295 11.3313 23.7687 11.2365C23.808 11.1417 23.8282 11.0401 23.8281 10.9375Z" fill="#BB9078"/>
<path d="M43.3594 32.8125H33.1867C32.7334 31.9375 32.1021 31.1671 31.3333 30.5506C30.5645 29.9341 29.6753 29.4852 28.7228 29.2328C28.4263 29.1515 28.1123 29.1605 27.821 29.2588C27.5297 29.3571 27.2744 29.5401 27.0878 29.7844C26.2551 30.8131 27.245 31.7331 27.4735 32.8125H26.1719C25.3433 32.8134 24.549 33.1429 23.9631 33.7288C23.3773 34.3147 23.0478 35.109 23.0469 35.9375V45.3125C23.0478 46.141 23.3773 46.9354 23.9631 47.5212C24.549 48.1071 25.3433 48.4366 26.1719 48.4375H43.3594C44.1879 48.4366 44.9822 48.1071 45.5681 47.5212C46.154 46.9354 46.4835 46.141 46.4844 45.3125V35.9375C46.4835 35.109 46.154 34.3146 45.5681 33.7288C44.9822 33.1429 44.1879 32.8134 43.3594 32.8125ZM44.9219 45.3125C44.9214 45.7268 44.7566 46.1239 44.4637 46.4168C44.1708 46.7098 43.7736 46.8745 43.3594 46.875H26.1719C25.7576 46.8745 25.3605 46.7098 25.0675 46.4168C24.7746 46.1239 24.6098 45.7268 24.6094 45.3125V35.9375C24.6098 35.5232 24.7746 35.1261 25.0675 34.8332C25.3605 34.5403 25.7576 34.3755 26.1719 34.375H28.4168C30.0331 34.2643 28.6501 31.3772 28.3051 30.7388C29.1188 30.9569 29.8727 31.356 30.5107 31.9062C31.1486 32.4564 31.6541 33.1436 31.9893 33.9165C32.0513 34.0532 32.1513 34.1692 32.2775 34.2505C32.4037 34.3318 32.5506 34.375 32.7007 34.375H43.3594C43.7736 34.3755 44.1708 34.5403 44.4637 34.8332C44.7566 35.1261 44.9214 35.5232 44.9219 35.9375V45.3125Z" fill="#BB9078"/>
<path d="M41.0158 41.4062H28.5158C28.3106 41.4093 28.1149 41.493 27.9708 41.6391C27.8268 41.7853 27.7461 41.9823 27.7461 42.1875C27.7461 42.3927 27.8268 42.5897 27.9709 42.7359C28.1149 42.8821 28.3107 42.9657 28.5159 42.9688H41.0158C41.221 42.9657 41.4168 42.8821 41.5608 42.7359C41.7048 42.5897 41.7856 42.3927 41.7856 42.1875C41.7856 41.9823 41.7048 41.7853 41.5608 41.6391C41.4168 41.4929 41.221 41.4093 41.0158 41.4062Z" fill="#BB9078"/>
<path d="M41.0154 38.2812H34.7654C34.5601 38.2842 34.3642 38.3678 34.2201 38.514C34.0759 38.6602 33.9951 38.8572 33.9951 39.0625C33.9951 39.2678 34.0759 39.4649 34.2201 39.6111C34.3642 39.7573 34.5601 39.8409 34.7654 39.8438H41.0154C41.2207 39.8408 41.4166 39.7573 41.5607 39.6111C41.7048 39.4649 41.7857 39.2678 41.7857 39.0625C41.7857 38.8572 41.7048 38.6601 41.5607 38.5139C41.4166 38.3677 41.2207 38.2842 41.0154 38.2812Z" fill="#BB9078"/>
</svg>
