<svg width="50" height="50" viewBox="0 0 50 50" fill="none" xmlns="http://www.w3.org/2000/svg">
<path d="M40.4785 23.312H34.6687V17.938H35.8888C36.2933 17.938 36.6212 17.6101 36.6212 17.2056V9.39305C36.6212 8.98846 36.2933 8.66063 35.8888 8.66063H31.7326C31.6675 4.97655 30.9895 1.8244 26.1234 1.8244C23.0565 1.8244 20.2405 3.6705 19.0418 4.81229C18.8033 4.7743 18.559 4.75399 18.31 4.75399C18.0612 4.75399 17.8172 4.77421 17.5789 4.81219C16.3803 3.6704 13.5646 1.8244 10.4975 1.8244C5.63164 1.8244 4.95361 4.97655 4.88848 8.66063H0.732422C0.32793 8.66063 0 8.98846 0 9.39305V17.2056C0 17.6101 0.32793 17.938 0.732422 17.938H1.95312V25.0204C1.95312 25.4247 2.28223 25.7528 2.68555 25.7528C3.08984 25.7528 3.41797 25.4247 3.41797 25.0204V17.9746H13.6719V34.0536H3.41797V27.9501C3.41797 27.5468 3.08984 27.2177 2.68555 27.2177C2.28223 27.2177 1.95312 27.5468 1.95312 27.9501V42.5985C1.95312 42.6618 1.96201 42.7229 1.97725 42.7815C2.0585 43.0975 2.34443 43.3313 2.68574 43.3313H5.94814C6.3082 46.0611 8.64863 48.1755 11.4751 48.1755C14.3016 48.1755 16.642 46.0612 17.0021 43.3313H33.9749C34.335 46.0611 36.6754 48.1755 39.5019 48.1755C42.3283 48.1755 44.6688 46.0612 45.0288 43.3313H49.2676C49.6721 43.3313 50 43.0035 50 42.5989V32.8335C50 27.5833 45.7287 23.312 40.4785 23.312ZM39.7457 24.7768V29.171H34.6687V24.7768H39.7457ZM35.1563 10.1255V16.4731H22.9493V10.1255H35.1563ZM33.2038 17.9746V34.0536H22.9493V17.9746H33.2038ZM26.1235 3.28925C28.419 3.28925 29.1605 4.05673 29.55 4.72538C30.0986 5.66737 30.239 7.13378 30.2673 8.66063H22.8904C22.6671 7.25848 21.8131 6.06464 20.6294 5.37811C21.8721 4.41932 24.0148 3.28925 26.1235 3.28925ZM15.1367 16.4731V10.1255H21.4845V16.4731H15.1367ZM21.4845 17.9746V34.0536H15.1367V17.9746H21.4845ZM18.3102 6.21884C19.8083 6.21884 21.0662 7.26239 21.3978 8.66063H15.2225C15.554 7.26258 16.812 6.21884 18.3102 6.21884ZM7.07129 4.72538C7.46074 4.05673 8.20215 3.28925 10.4976 3.28925C12.6063 3.28925 14.7488 4.41903 15.9913 5.37772C14.8073 6.06415 13.9529 7.25819 13.7297 8.66063H6.354C6.38223 7.13387 6.52256 5.66727 7.07129 4.72538ZM1.46484 16.4731V10.1255H13.6719V16.4731H1.46484ZM11.4751 46.7105C9.20791 46.7105 7.36338 44.8659 7.36338 42.5987C7.36338 40.3315 9.20791 38.487 11.4751 38.487C13.7423 38.487 15.5869 40.3315 15.5869 42.5987C15.5868 44.866 13.7423 46.7105 11.4751 46.7105ZM39.5019 46.7105C37.2347 46.7105 35.3901 44.8659 35.3901 42.5987C35.3901 40.3315 37.2347 38.487 39.5019 38.487C41.769 38.487 43.6136 40.3315 43.6136 42.5987C43.6136 44.866 41.769 46.7105 39.5019 46.7105ZM48.5352 41.8666H45.0289C44.669 39.1367 42.3285 37.0224 39.5019 37.0224C36.6753 37.0224 34.3347 39.1367 33.9748 41.8666H17.0021C16.6423 39.1367 14.3018 37.0224 11.4751 37.0224C8.64853 37.0224 6.30791 39.1367 5.94805 41.8666H3.41797V35.5184H33.9362C34.3407 35.5184 34.6687 35.1906 34.6687 34.786V30.6358H40.4781C41.5532 30.6358 42.5596 31.5566 43.7247 32.6227C45.0511 33.8363 46.5361 35.1937 48.5352 35.4681V41.8666ZM48.5352 33.9823C47.0712 33.6982 45.8752 32.605 44.7136 31.542C43.6345 30.5547 42.5242 29.539 41.2105 29.2514V24.8117C45.311 25.1829 48.5352 28.638 48.5352 32.8335V33.9823Z" fill="#BB9078"/>
<path d="M11.4746 39.9132C9.99375 39.9132 8.78906 41.118 8.78906 42.5987C8.78906 44.0795 9.99375 45.2843 11.4746 45.2843C12.9555 45.2843 14.1602 44.0795 14.1602 42.5987C14.1602 41.118 12.9555 39.9132 11.4746 39.9132ZM11.4746 43.8194C10.8015 43.8194 10.2539 43.2719 10.2539 42.5987C10.2539 41.9256 10.8015 41.378 11.4746 41.378C12.1478 41.378 12.6953 41.9256 12.6953 42.5987C12.6953 43.2718 12.1477 43.8194 11.4746 43.8194Z" fill="#BB9078"/>
<path d="M39.502 39.9132C38.0211 39.9132 36.8164 41.118 36.8164 42.5987C36.8164 44.0795 38.0211 45.2843 39.502 45.2843C40.9828 45.2843 42.1875 44.0795 42.1875 42.5987C42.1875 41.118 40.9828 39.9132 39.502 39.9132ZM39.502 43.8194C38.8288 43.8194 38.2812 43.2719 38.2812 42.5987C38.2812 41.9256 38.8288 41.378 39.502 41.378C40.1751 41.378 40.7227 41.9256 40.7227 42.5987C40.7227 43.2718 40.1751 43.8194 39.502 43.8194Z" fill="#BB9078"/>
</svg>
