<svg width="40" height="40" viewBox="0 0 40 40" fill="none" xmlns="http://www.w3.org/2000/svg">
<path d="M24.375 17.5C24.375 17.9973 24.1775 18.4742 23.8259 18.8259C23.4742 19.1775 22.9973 19.375 22.5 19.375H19.375V22.5C19.375 22.9973 19.1775 23.4742 18.8259 23.8259C18.4742 24.1775 17.9973 24.375 17.5 24.375C17.0027 24.375 16.5258 24.1775 16.1742 23.8259C15.8226 23.4742 15.625 22.9973 15.625 22.5V19.375H12.5C12.0027 19.375 11.5258 19.1775 11.1742 18.8259C10.8226 18.4742 10.625 17.9973 10.625 17.5C10.625 17.0027 10.8226 16.5258 11.1742 16.1742C11.5258 15.8226 12.0027 15.625 12.5 15.625H15.625V12.5C15.625 12.0027 15.8226 11.5258 16.1742 11.1742C16.5258 10.8226 17.0027 10.625 17.5 10.625C17.9973 10.625 18.4742 10.8226 18.8259 11.1742C19.1775 11.5258 19.375 12.0027 19.375 12.5V15.625H22.5C22.9973 15.625 23.4742 15.8226 23.8259 16.1742C24.1775 16.5258 24.375 17.0027 24.375 17.5ZM36.3266 36.3266C36.1524 36.5014 35.9454 36.6401 35.7175 36.7347C35.4896 36.8294 35.2452 36.8781 34.9985 36.8781C34.7517 36.8781 34.5073 36.8294 34.2794 36.7347C34.0515 36.6401 33.8445 36.5014 33.6703 36.3266L26.25 28.9063C23.3508 31.1311 19.7138 32.1699 16.0768 31.8117C12.4399 31.4536 9.07529 29.7255 6.66564 26.9779C4.25598 24.2303 2.98167 20.669 3.10122 17.0164C3.22076 13.3639 4.72519 9.8935 7.30934 7.30934C9.8935 4.72519 13.3639 3.22076 17.0164 3.10122C20.669 2.98167 24.2303 4.25598 26.9779 6.66564C29.7255 9.07529 31.4536 12.4399 31.8117 16.0768C32.1699 19.7138 31.1311 23.3508 28.9063 26.25L36.3344 33.6766C36.6845 34.0292 36.8803 34.5063 36.8789 35.0032C36.8774 35.5001 36.6788 35.9761 36.3266 36.3266ZM17.5 28.125C19.6015 28.125 21.6557 27.5019 23.403 26.3344C25.1502 25.1669 26.5121 23.5075 27.3162 21.566C28.1204 19.6246 28.3308 17.4882 27.9209 15.4272C27.5109 13.3661 26.499 11.473 25.013 9.98702C23.5271 8.50109 21.6339 7.48915 19.5729 7.07919C17.5118 6.66922 15.3755 6.87963 13.434 7.68381C11.4926 8.48799 9.83316 9.84982 8.66567 11.5971C7.49818 13.3444 6.87503 15.3986 6.87503 17.5C6.87834 20.3169 7.99882 23.0175 9.99067 25.0094C11.9825 27.0012 14.6831 28.1217 17.5 28.125Z" fill="#D3D3D3"/>
</svg>
