<svg width="54" height="54" viewBox="0 0 54 54" fill="none" xmlns="http://www.w3.org/2000/svg">
<g clip-path="url(#clip0_79_87)">
<path d="M36.397 16.2852L22.7399 11.5743C21.4461 11.132 19.9975 11.2204 18.7589 11.8176L18.0733 12.1493C17.1444 12.6027 16.0496 12.6691 15.0765 12.3152L13.9043 11.895C13.849 11.8618 13.7937 11.8286 13.7384 11.8065L6.74954 9.42897C6.58366 9.37367 6.39567 9.38473 6.24085 9.46214C6.08604 9.53955 5.9644 9.67225 5.9091 9.83813L0.0371104 26.9675C-0.0845317 27.3103 0.103461 27.6863 0.44627 27.808L7.44622 30.2076C7.52363 30.2408 7.58998 30.2519 7.66738 30.2519C7.76691 30.2519 7.86643 30.2298 7.9549 30.1855C8.10972 30.1081 8.23136 29.9754 8.28665 29.8095L13.9375 13.3326L14.6452 13.5869C15.9501 14.0514 17.4209 13.9629 18.6705 13.3547L19.3561 13.0229C20.2739 12.5695 21.3576 12.5032 22.3197 12.8349L35.4681 17.3689C35.3686 17.9439 35.0921 18.8949 34.3733 19.3926C33.732 19.8349 32.8031 19.857 31.6309 19.4478L25.8916 17.4905C25.7146 17.4352 25.5266 17.4463 25.3608 17.5348C25.1949 17.6232 25.0843 17.778 25.029 17.955C25.018 17.9881 24.1665 21.1287 21.5125 22.5442C19.8316 23.451 17.7526 23.4842 15.3308 22.6548C14.988 22.5331 14.612 22.7211 14.4904 23.0639C14.3688 23.4067 14.5567 23.7827 14.8996 23.9044C16.1934 24.3467 17.4209 24.5679 18.5599 24.5679C19.8648 24.5679 21.0591 24.2804 22.1428 23.6943C24.5093 22.4225 25.6483 20.1003 26.0796 18.9502L31.1775 20.6974C32.7809 21.2504 34.0969 21.173 35.1143 20.4763C36.7509 19.3483 36.8283 17.0261 36.8394 16.9265C36.8504 16.639 36.6624 16.3736 36.397 16.2852ZM7.25822 28.7369L1.50787 26.7685L6.94859 10.8997L12.5441 12.8128C12.5884 12.8349 12.6326 12.8571 12.6768 12.8792L12.6989 12.8902L7.25822 28.7369Z" fill="#BB9078"/>
<path d="M53.9356 26.0938L45.9514 9.87119C45.874 9.71637 45.7413 9.59473 45.5754 9.53944C45.4096 9.48415 45.2216 9.49521 45.0668 9.57262L38.4207 12.8238C38.0889 12.9897 37.9562 13.3767 38.111 13.7084L45.8519 29.5219L43.2532 31.8995C41.0526 33.9231 38.5644 35.6151 35.8773 36.931L23.1491 43.1569C22.7952 43.3338 22.3971 43.3559 22.0211 43.2232C21.6451 43.0905 21.3466 42.8251 21.1696 42.4713C20.9927 42.1174 20.9706 41.7193 21.1033 41.3433C21.236 40.9673 21.5014 40.6687 21.8552 40.4918L28.9658 37.0084C29.2975 36.8426 29.4302 36.4555 29.2754 36.1238C29.1095 35.792 28.7114 35.6593 28.3907 35.8141L21.435 39.2201L17.9295 40.9341C17.1997 41.288 16.3039 40.9894 15.9501 40.2596C15.5962 39.5297 15.8948 38.6451 16.6246 38.2801L26.8426 33.2818C27.1743 33.1159 27.307 32.7288 27.1522 32.3971C26.9863 32.0653 26.5882 31.9326 26.2675 32.0875L18.7036 35.792L16.0496 37.0858L14.8 37.694C14.0702 38.0479 13.1744 37.7493 12.8206 37.0195C12.4667 36.2896 12.7653 35.3939 13.4951 35.04L14.7558 34.4208L23.901 29.9421C24.2328 29.7763 24.3655 29.3892 24.2107 29.0575C24.0448 28.7257 23.6467 28.593 23.326 28.7478L17.454 31.623L14.1807 33.2265C13.8269 33.4034 13.4288 33.4255 13.0528 33.2928C12.6768 33.1601 12.3782 32.8947 12.2013 32.5408C12.0244 32.187 12.0022 31.7889 12.1349 31.4129C12.2676 31.0369 12.533 30.7383 12.8869 30.5614L17.7415 28.1838C18.0733 28.018 18.206 27.6309 18.0512 27.2992C17.8853 26.9674 17.4872 26.8347 17.1665 26.9895L12.3119 29.3671C11.6373 29.6988 11.1286 30.2739 10.8853 30.9816C10.6421 31.6894 10.6863 32.4524 11.018 33.1269C11.2724 33.6577 11.6926 34.078 12.2013 34.3544C11.3609 35.1838 11.1065 36.4776 11.6484 37.5835C12.1349 38.5787 13.1302 39.1537 14.1697 39.1537C14.2913 39.1537 14.413 39.1427 14.5346 39.1316C14.4461 39.6845 14.5125 40.2706 14.7779 40.8236C15.2645 41.8188 16.2597 42.3938 17.2992 42.3938C17.7084 42.3938 18.1286 42.3054 18.5267 42.1063L19.732 41.5092C19.6768 42.0289 19.7652 42.5487 20.0085 43.0242C20.3403 43.6987 20.9153 44.2074 21.623 44.4507C21.9216 44.5502 22.2312 44.6055 22.5409 44.6055C22.9611 44.6055 23.3813 44.506 23.7683 44.318L36.4965 38.0921C39.3054 36.7209 41.882 34.9516 44.1821 32.8394L47.0683 30.1854L53.6259 26.9785C53.9577 26.8126 54.0904 26.4256 53.9356 26.0938ZM46.9688 28.7921L39.5929 13.7195L45.0557 11.0544L52.4206 26.127L46.9688 28.7921Z" fill="#BB9078"/>
</g>
<defs>
<clipPath id="clip0_79_87">
<rect width="54" height="54" fill="white"/>
</clipPath>
</defs>
</svg>
