<svg width="50" height="50" viewBox="0 0 50 50" fill="none" xmlns="http://www.w3.org/2000/svg">
<g clip-path="url(#clip0_30_1022)">
<path d="M48.877 33.8867H27.5074L30.9223 30.4718C31.208 30.1857 31.208 29.7218 30.9223 29.4357C30.6362 29.15 30.1723 29.15 29.8862 29.4357L27.3865 31.9359L18.0645 22.6135L23.2437 17.4343L32.5657 26.7567L32.0957 27.2266C31.8096 27.5127 31.8096 27.9762 32.0957 28.2623C32.2388 28.4054 32.4265 28.4767 32.6138 28.4767C32.8011 28.4767 32.9887 28.4054 33.1314 28.2623L42.6178 18.7759C42.8299 18.5638 42.947 18.2816 42.947 17.9817C42.947 17.6819 42.8299 17.3996 42.6178 17.1875L32.8125 7.3822C32.6004 7.1701 32.3181 7.05338 32.0183 7.05338C31.7181 7.05338 31.4362 7.1701 31.2241 7.3822L16.1133 22.4926V1.12305C16.1133 0.503921 15.6094 0 14.9902 0H1.12305C0.503921 0 0 0.503921 0 1.12305V41.9434C0 42.0807 0.00343322 42.2176 0.0102997 42.3538C0.0114441 42.3744 0.0137329 42.3954 0.0148773 42.4164C0.0217438 42.5327 0.0301361 42.6491 0.0415802 42.7643C0.0423432 42.77 0.0431061 42.7753 0.0434875 42.7811C0.232315 44.6159 1.0376 46.3173 2.36015 47.6402C3.68309 48.9628 5.38483 49.7684 7.22008 49.9565C7.22504 49.9573 7.23038 49.958 7.23572 49.9584C7.35168 49.9702 7.4688 49.9786 7.58591 49.9851C7.60612 49.9863 7.62596 49.9886 7.64618 49.9897C7.78236 49.9966 7.91931 50 8.05664 50H48.877C49.4961 50 50 49.4961 50 48.877V35.0098C50 34.3906 49.4961 33.8867 48.877 33.8867ZM15.9912 43.3311C16.0698 42.8799 16.1133 42.4168 16.1133 41.9434V35.1639L20.1359 39.1865L15.9912 43.3311ZM7.72095 48.5268C7.70416 48.526 7.68738 48.5241 7.67059 48.5229C7.57484 48.5172 7.47948 48.5107 7.38525 48.5012C7.37991 48.5008 7.37457 48.4997 7.36885 48.4993C4.282 48.1777 1.8219 45.7172 1.5007 42.6304C1.50032 42.625 1.49918 42.6201 1.49879 42.6151C1.48926 42.5205 1.48277 42.4252 1.47705 42.329C1.47591 42.3126 1.47438 42.2958 1.47324 42.2791C1.4679 42.168 1.46484 42.0559 1.46484 41.9434V31.4522H9.35059C9.75494 31.4522 10.083 31.1245 10.083 30.7198C10.083 30.3154 9.75494 29.9873 9.35059 29.9873H1.46484V22.6631H14.6484V29.9873H12.5C12.0956 29.9873 11.7676 30.3154 11.7676 30.7198C11.7676 31.1245 12.0956 31.4522 12.5 31.4522H14.6484V41.9434C14.6484 45.578 11.6913 48.5352 8.05664 48.5352C7.94411 48.5352 7.83195 48.5321 7.72095 48.5268ZM1.46484 5.08499H14.6484V12.4092H1.46484V5.08499ZM14.6484 13.8741V21.1983H1.46484V13.8741H14.6484ZM26.3508 32.9716L21.172 38.1504L16.1133 33.0921V24.5644L17.0284 23.6492L26.3508 32.9716ZM24.2794 16.3986L29.4582 11.2194L38.7806 20.5418L33.6014 25.7206L24.2794 16.3986ZM32.0183 8.65974L41.3403 17.9817L39.8163 19.5061L30.4939 10.1837L32.0183 8.65974ZM14.6484 1.46484V3.62015H1.46484V1.46484H14.6484ZM13.6864 47.699C13.7096 47.681 13.7321 47.6616 13.7535 47.6402L18.5478 42.8459V48.5352H12.6804C13.0379 48.2834 13.3747 48.0042 13.6864 47.699ZM20.0127 41.3811L26.0426 35.3516H27.3369V43.75C27.3369 44.1547 27.6646 44.4824 28.0693 44.4824C28.4737 44.4824 28.8017 44.1547 28.8017 43.75V35.3516H36.1259V48.5352H28.8017V46.875C28.8017 46.4703 28.4737 46.1426 28.0693 46.1426C27.6646 46.1426 27.3369 46.4703 27.3369 46.875V48.5352H20.0127V41.3811ZM37.5908 48.5352V35.3516H44.915V48.5352H37.5908ZM48.5352 48.5352H46.3799V35.3516H48.5352V48.5352Z" fill="#BB9078"/>
<path d="M7.88086 38.0737C5.86174 38.0737 4.21875 39.7167 4.21875 41.7358C4.21875 43.7553 5.86174 45.3979 7.88086 45.3979C9.90036 45.3979 11.543 43.7553 11.543 41.7358C11.543 39.7167 9.90036 38.0737 7.88086 38.0737ZM7.88086 43.9331C6.66931 43.9331 5.68359 42.9474 5.68359 41.7358C5.68359 40.5243 6.66931 39.5386 7.88086 39.5386C9.09241 39.5386 10.0781 40.5243 10.0781 41.7358C10.0781 42.9474 9.09241 43.9331 7.88086 43.9331Z" fill="#BB9078"/>
</g>
<defs>
<clipPath id="clip0_30_1022">
<rect width="50" height="50" fill="white"/>
</clipPath>
</defs>
</svg>
