<svg width="47" height="43" viewBox="0 0 47 43" fill="none" xmlns="http://www.w3.org/2000/svg">
<path d="M23.6817 27.1273C29.5267 27.1273 34.2816 22.3722 34.2816 16.5273C34.2816 10.6823 29.5265 5.92734 23.6817 5.92734C17.8367 5.92734 13.0816 10.6824 13.0816 16.5273C13.0816 22.3722 17.8367 27.1273 23.6817 27.1273ZM23.6817 7.2557C28.7941 7.2557 32.9533 11.415 32.9533 16.5273C32.9533 21.6395 28.7939 25.799 23.6817 25.799C18.5693 25.799 14.41 21.6395 14.41 16.5273C14.41 11.4149 18.5693 7.2557 23.6817 7.2557Z" fill="#BB9078" stroke="#BB9078" stroke-width="0.2"/>
<mask id="path-2-outside-1_79_98" maskUnits="userSpaceOnUse" x="0" y="0" width="47" height="43" fill="black">
<rect fill="white" width="47" height="43"/>
<path d="M1.0058 31.7249C1.00891 31.7465 1.01342 31.7676 1.01892 31.7884C1.02273 31.8028 1.02696 31.8167 1.0319 31.8308C1.03923 31.8514 1.04769 31.8713 1.05743 31.891C1.06377 31.9042 1.07054 31.9171 1.07802 31.9297C1.08987 31.9497 1.10312 31.9685 1.11723 31.987C1.12245 31.9937 1.12597 32.0012 1.13161 32.0077C1.135 32.0116 1.13923 32.0143 1.14262 32.0181C1.16194 32.0397 1.1831 32.0592 1.20552 32.0776C1.21427 32.085 1.22245 32.0927 1.23147 32.0994C1.25503 32.1164 1.28056 32.1308 1.30693 32.1441C1.31596 32.1487 1.32442 32.1545 1.33359 32.1588C1.35997 32.1705 1.38818 32.1786 1.41667 32.1861C1.42668 32.1889 1.43613 32.1932 1.44614 32.1953C1.44741 32.1956 1.44854 32.1961 1.44967 32.1964L9.01968 33.7332L9.26919 41.454C9.26933 41.4611 9.27145 41.4677 9.27187 41.4746C9.27314 41.4941 9.2761 41.5131 9.27949 41.5324C9.28245 41.5498 9.28555 41.5669 9.29006 41.5835C9.29486 41.6011 9.30121 41.6183 9.30769 41.6355C9.31432 41.6528 9.32095 41.6698 9.32913 41.686C9.33689 41.7016 9.34592 41.7165 9.35509 41.7315C9.36552 41.7482 9.37624 41.7643 9.38837 41.78C9.39345 41.7865 9.39669 41.7937 9.40205 41.8C9.40755 41.8066 9.41446 41.811 9.42025 41.8172C9.43633 41.8347 9.45354 41.8506 9.47173 41.866C9.48428 41.8766 9.49655 41.887 9.50981 41.8965C9.52829 41.9095 9.54803 41.9203 9.56806 41.931C9.58203 41.9385 9.59528 41.9468 9.60967 41.953C9.63224 41.9628 9.65622 41.9695 9.68019 41.9763C9.69303 41.9798 9.70544 41.9852 9.71856 41.9879C9.74663 41.9938 9.77596 41.9958 9.80544 41.997C9.81475 41.9976 9.82392 42 9.83337 42C9.83478 42 9.83605 41.9997 9.83732 41.9997C9.84197 41.9996 9.84663 41.9996 9.85128 41.9994C9.85833 41.9992 9.86482 41.9972 9.87187 41.9966C9.89839 41.9948 9.92476 41.9917 9.951 41.986C9.96299 41.9835 9.97455 41.9801 9.98612 41.9769C10.008 41.9708 10.0296 41.9635 10.0507 41.9546C10.0631 41.9494 10.0753 41.9439 10.0871 41.9378C10.1059 41.9284 10.1239 41.9175 10.1417 41.9058C10.154 41.8976 10.1661 41.8894 10.1778 41.8804C10.184 41.8755 10.1911 41.8719 10.1971 41.8667L23.0911 30.9764C23.2958 30.9295 23.4944 30.8994 23.6814 30.8994C23.8684 30.8994 24.0669 30.9295 24.2715 30.9764L37.1654 41.8667C37.1716 41.8719 37.1787 41.8756 37.1852 41.8805C37.1966 41.8894 37.2085 41.8975 37.2207 41.9055C37.2386 41.9174 37.257 41.9282 37.2759 41.9378C37.2877 41.9437 37.2996 41.9492 37.3118 41.9543C37.3331 41.9632 37.355 41.9707 37.377 41.9769C37.3886 41.9801 37.3998 41.9835 37.4117 41.9859C37.4381 41.9915 37.4643 41.9948 37.4911 41.9965C37.498 41.997 37.5045 41.999 37.5116 41.9993C37.5162 41.9994 37.5207 41.9994 37.5255 41.9996C37.5269 41.9996 37.5282 41.9999 37.5295 41.9999C37.5391 41.9999 37.5485 41.9972 37.5581 41.9969C37.5873 41.9953 37.6162 41.9935 37.644 41.9877C37.6574 41.9851 37.67 41.9797 37.6829 41.976C37.7066 41.9693 37.7305 41.9625 37.7529 41.9529C37.7674 41.9467 37.7808 41.9382 37.7949 41.9306C37.8148 41.92 37.8343 41.9093 37.8527 41.8965C37.8661 41.887 37.8786 41.8763 37.8911 41.8656C37.909 41.8505 37.9259 41.8347 37.9419 41.8175C37.9478 41.8111 37.9549 41.8065 37.9605 41.7999C37.9659 41.7934 37.9694 41.786 37.9745 41.7794C37.9863 41.7642 37.9969 41.7482 38.007 41.7319C38.0165 41.7166 38.0257 41.7014 38.0336 41.6856C38.0417 41.6695 38.0482 41.6529 38.0547 41.6357C38.0613 41.6182 38.0677 41.6008 38.0726 41.5831C38.077 41.5664 38.0801 41.5495 38.0831 41.5324C38.0863 41.513 38.0894 41.4938 38.0907 41.4742C38.0913 41.4673 38.0932 41.4606 38.0935 41.4536L38.3429 33.733L45.9136 32.196C45.9147 32.1957 45.9157 32.1951 45.9167 32.195C45.9315 32.1919 45.9455 32.1858 45.96 32.1815C45.9833 32.1747 46.0068 32.1683 46.0284 32.1589C46.0419 32.153 46.0542 32.1446 46.0672 32.1377C46.0886 32.1262 46.1102 32.1147 46.1297 32.1005C46.1421 32.0916 46.1532 32.0809 46.1649 32.071C46.1835 32.0552 46.2016 32.0389 46.2178 32.021C46.2223 32.016 46.228 32.0123 46.2325 32.0071C46.2398 31.9984 46.2446 31.9885 46.2514 31.9796C46.2624 31.965 46.2728 31.9501 46.2824 31.9345C46.2926 31.9176 46.3017 31.9005 46.3099 31.8829C46.317 31.8679 46.3235 31.8528 46.3293 31.8373C46.3363 31.8183 46.3421 31.7991 46.3469 31.7798C46.3508 31.764 46.3542 31.7482 46.3568 31.7319C46.3599 31.7116 46.3618 31.6916 46.3628 31.6713C46.3637 31.6554 46.3639 31.6394 46.3634 31.6233C46.3627 31.6015 46.3603 31.5798 46.3569 31.5582C46.3555 31.5492 46.3559 31.54 46.3541 31.531C46.3528 31.5249 46.3501 31.5197 46.3487 31.5138C46.3436 31.4922 46.3367 31.4713 46.3291 31.4504C46.3237 31.4358 46.3187 31.4212 46.3122 31.4071C46.3037 31.3889 46.2936 31.3717 46.2833 31.3544C46.2744 31.3396 46.2656 31.3248 46.2555 31.3108C46.2449 31.2961 46.2328 31.2827 46.2205 31.269C46.2075 31.2544 46.1943 31.2401 46.18 31.227C46.1748 31.2224 46.171 31.2167 46.1655 31.2122L37.3134 23.7346C37.3055 23.4779 37.2891 23.2193 37.2725 22.9626C37.2241 22.2166 37.1784 21.512 37.3546 20.9694C37.519 20.4623 37.9577 19.9389 38.422 19.3848C39.1062 18.5681 39.8815 17.6427 39.8815 16.5266C39.8815 15.4104 39.1061 14.4849 38.4219 13.6682C37.9575 13.114 37.5192 12.5908 37.3546 12.084C37.1784 11.5415 37.2241 10.8369 37.2725 10.091C37.3434 8.9978 37.4168 7.86718 36.7879 7.00314C36.1525 6.12994 35.0484 5.85067 33.9805 5.58071C33.2612 5.39876 32.5819 5.22697 32.1296 4.89791C31.6864 4.57534 31.3183 3.98775 30.9284 3.36574C30.3394 2.42568 29.7304 1.45374 28.6885 1.11552C28.4523 1.03893 28.1968 1 27.9288 1C27.1668 1 26.3909 1.30917 25.6405 1.60804C24.9666 1.87659 24.2696 2.15431 23.6813 2.15431C23.0927 2.15431 22.3957 1.87659 21.7216 1.60804C20.9712 1.30917 20.1955 1 19.4334 1C19.1657 1 18.9102 1.03893 18.6739 1.11552C17.6323 1.45374 17.0231 2.42568 16.4343 3.3656C16.0444 3.98761 15.6761 4.5752 15.233 4.89777C14.7807 5.22683 14.1014 5.39862 13.3822 5.58057C12.3143 5.85053 11.2102 6.1298 10.5747 7.003C9.94592 7.86704 10.0194 8.99752 10.0904 10.0908C10.1387 10.8369 10.1844 11.5415 10.0083 12.084C9.84367 12.5909 9.40516 13.1143 8.9407 13.6685C8.25649 14.485 7.48102 15.4105 7.48102 16.5266C7.48102 17.6429 8.25663 18.5684 8.94084 19.385C9.40516 19.9392 9.84381 20.4626 10.0083 20.9694C10.1844 21.512 10.1387 22.2166 10.0904 22.9626C10.0737 23.2191 10.0573 23.4776 10.0494 23.7344L1.19833 31.2122C1.19367 31.216 1.19043 31.2209 1.18606 31.2249C1.16885 31.2401 1.15348 31.2571 1.13824 31.2744C1.12879 31.2853 1.11906 31.2958 1.1106 31.3073C1.09748 31.3248 1.08634 31.3435 1.07534 31.3626C1.06772 31.3758 1.05996 31.3888 1.05348 31.4023C1.04473 31.4209 1.03782 31.4404 1.03091 31.4602C1.02541 31.4758 1.02019 31.4915 1.01624 31.5077C1.01427 31.5157 1.0106 31.5228 1.00905 31.531C1.00651 31.5434 1.00693 31.5556 1.00538 31.5679C1.00326 31.584 1.00129 31.6001 1.00058 31.6163C0.999597 31.6379 0.999879 31.659 1.00129 31.6802C1.00228 31.6957 1.00355 31.7101 1.0058 31.7249ZM44.547 31.3226L37.681 32.7166C37.6623 32.7202 37.6455 32.7276 37.6279 32.7329C37.6123 32.7377 37.5962 32.7415 37.5812 32.7476C37.5642 32.7545 37.5486 32.7635 37.5324 32.772C37.5152 32.7809 37.4979 32.7892 37.4819 32.7997C37.4702 32.8076 37.4599 32.8167 37.4489 32.8253C37.4306 32.8394 37.4123 32.8535 37.3959 32.8698C37.3884 32.8771 37.3824 32.8853 37.3753 32.893C37.358 32.9124 37.341 32.932 37.3264 32.9537C37.3209 32.9617 37.3168 32.9705 37.3117 32.9788C37.2983 33.0009 37.2853 33.0232 37.275 33.0473C37.2697 33.0599 37.2663 33.0733 37.2618 33.086C37.2547 33.1067 37.2472 33.1272 37.2426 33.1487C37.2384 33.1682 37.2369 33.1881 37.2347 33.208C37.2331 33.2226 37.2295 33.2363 37.229 33.2513L37.0028 40.2536L27.1915 31.9668C27.4377 32.02 27.6838 32.0542 27.9287 32.0542C28.1965 32.0542 28.4521 32.0154 28.6884 31.9387C29.7301 31.6004 30.339 30.6284 30.928 29.6886C31.3179 29.0665 31.686 28.4789 32.1293 28.1563C32.5815 27.8273 33.2608 27.6555 33.9799 27.4737C35.0478 27.2036 36.1522 26.9243 36.7876 26.051C36.9948 25.7662 37.1247 25.4524 37.2046 25.1206L44.547 31.3226ZM9.80572 18.6609C9.19049 17.9268 8.60952 17.2333 8.60952 16.5273C8.60952 15.8214 9.19063 15.128 9.80572 14.3939C10.3188 13.7816 10.8495 13.1483 11.0816 12.4332C11.3245 11.685 11.2696 10.8377 11.2165 10.0184C11.1558 9.08412 11.0985 8.20174 11.4871 7.66761C11.8825 7.1243 12.7454 6.90625 13.6589 6.67522C14.4503 6.47507 15.2687 6.26816 15.897 5.81089C16.5166 5.35998 16.9608 4.65108 17.3904 3.96561C17.8945 3.16109 18.3708 2.40114 19.0224 2.18957C19.1477 2.14881 19.2821 2.12906 19.4334 2.12906C19.979 2.12906 20.6226 2.38548 21.304 2.65699C22.0769 2.96489 22.8762 3.28337 23.6813 3.28337C24.4861 3.28337 25.2852 2.96503 26.0582 2.65713C26.7395 2.38562 27.3833 2.1292 27.9288 2.1292C28.0803 2.1292 28.2147 2.14895 28.34 2.18971C28.9918 2.40128 29.4681 3.16123 29.9722 3.96589C30.4018 4.65137 30.8459 5.36026 31.4655 5.81118C32.094 6.26859 32.9124 6.4755 33.7038 6.67564C34.6173 6.90667 35.4801 7.12487 35.8753 7.66817C36.2642 8.20245 36.2069 9.08482 36.1462 10.019C36.0932 10.8383 36.0382 11.6853 36.2811 12.4335C36.5132 13.1486 37.0437 13.7818 37.5568 14.3939C38.1719 15.1282 38.7529 15.8215 38.7529 16.5276C38.7529 17.2334 38.1719 17.9269 37.557 18.6611C37.0439 19.2735 36.5134 19.9068 36.2811 20.6219C36.0382 21.3702 36.0931 22.2174 36.1462 23.0365C36.2069 23.9707 36.264 24.8531 35.8753 25.3872C35.4799 25.9308 34.617 26.1488 33.7035 26.3799C32.9122 26.5799 32.0939 26.7868 31.4654 27.244C30.8458 27.6951 30.4016 28.4041 29.972 29.0896C29.4679 29.8941 28.9918 30.6539 28.3401 30.8657C28.2149 30.9063 28.0805 30.9262 27.929 30.9262C27.3834 30.9262 26.7398 30.6697 26.0584 30.3984C25.6143 30.2214 25.1614 30.0429 24.7039 29.9215C24.6982 29.9197 24.6924 29.9185 24.6868 29.917C24.3536 29.8297 24.0181 29.7721 23.6814 29.7721C23.3452 29.7721 23.0099 29.8295 22.6772 29.9167C22.671 29.9185 22.6646 29.9197 22.6584 29.9216C22.201 30.0431 21.7483 30.2214 21.3043 30.3982C20.6229 30.6697 19.9791 30.926 19.4336 30.9262C19.2822 30.9262 19.1478 30.9063 19.0226 30.8657C18.3708 30.6541 17.8946 29.8941 17.3905 29.0896C16.9609 28.404 16.5166 27.695 15.897 27.244C15.2687 26.7868 14.4505 26.5799 13.6591 26.3799C12.7454 26.1488 11.8826 25.9306 11.4871 25.3872C11.0985 24.8531 11.1557 23.9708 11.2165 23.0367C11.2696 22.2174 11.3246 21.3702 11.0816 20.6219C10.8495 19.9065 10.3188 19.2732 9.80572 18.6609ZM10.1579 25.1206C10.2377 25.4522 10.3676 25.7662 10.5748 26.0508C11.2104 26.9242 12.3146 27.2034 13.3826 27.4735C14.1018 27.6553 14.7809 27.8271 15.2333 28.1562C15.6766 28.4788 16.0447 29.0663 16.4347 29.6885C17.0237 30.6283 17.6327 31.6002 18.6743 31.9386C18.9106 32.0153 19.1662 32.0541 19.4339 32.0541C19.6786 32.0541 19.9248 32.0198 20.1712 31.9665L10.3597 40.2534L10.1335 33.2511C10.1331 33.2372 10.1296 33.2245 10.1282 33.2109C10.1259 33.1896 10.1242 33.1681 10.1195 33.1475C10.1159 33.131 10.1101 33.1156 10.105 33.0998C10.099 33.0805 10.0933 33.0613 10.0851 33.0428C10.0792 33.0293 10.0716 33.017 10.0645 33.0043C10.0538 32.9843 10.0431 32.9645 10.0301 32.9459C10.0246 32.9382 10.0183 32.9314 10.0125 32.9241C9.99515 32.9019 9.97723 32.8806 9.95664 32.8612C9.95438 32.859 9.95185 32.8573 9.94959 32.8552C9.87653 32.7879 9.78626 32.7379 9.68189 32.7167L2.81696 31.3229L10.1579 25.1206Z"/>
</mask>
<path d="M1.0058 31.7249C1.00891 31.7465 1.01342 31.7676 1.01892 31.7884C1.02273 31.8028 1.02696 31.8167 1.0319 31.8308C1.03923 31.8514 1.04769 31.8713 1.05743 31.891C1.06377 31.9042 1.07054 31.9171 1.07802 31.9297C1.08987 31.9497 1.10312 31.9685 1.11723 31.987C1.12245 31.9937 1.12597 32.0012 1.13161 32.0077C1.135 32.0116 1.13923 32.0143 1.14262 32.0181C1.16194 32.0397 1.1831 32.0592 1.20552 32.0776C1.21427 32.085 1.22245 32.0927 1.23147 32.0994C1.25503 32.1164 1.28056 32.1308 1.30693 32.1441C1.31596 32.1487 1.32442 32.1545 1.33359 32.1588C1.35997 32.1705 1.38818 32.1786 1.41667 32.1861C1.42668 32.1889 1.43613 32.1932 1.44614 32.1953C1.44741 32.1956 1.44854 32.1961 1.44967 32.1964L9.01968 33.7332L9.26919 41.454C9.26933 41.4611 9.27145 41.4677 9.27187 41.4746C9.27314 41.4941 9.2761 41.5131 9.27949 41.5324C9.28245 41.5498 9.28555 41.5669 9.29006 41.5835C9.29486 41.6011 9.30121 41.6183 9.30769 41.6355C9.31432 41.6528 9.32095 41.6698 9.32913 41.686C9.33689 41.7016 9.34592 41.7165 9.35509 41.7315C9.36552 41.7482 9.37624 41.7643 9.38837 41.78C9.39345 41.7865 9.39669 41.7937 9.40205 41.8C9.40755 41.8066 9.41446 41.811 9.42025 41.8172C9.43633 41.8347 9.45354 41.8506 9.47173 41.866C9.48428 41.8766 9.49655 41.887 9.50981 41.8965C9.52829 41.9095 9.54803 41.9203 9.56806 41.931C9.58203 41.9385 9.59528 41.9468 9.60967 41.953C9.63224 41.9628 9.65622 41.9695 9.68019 41.9763C9.69303 41.9798 9.70544 41.9852 9.71856 41.9879C9.74663 41.9938 9.77596 41.9958 9.80544 41.997C9.81475 41.9976 9.82392 42 9.83337 42C9.83478 42 9.83605 41.9997 9.83732 41.9997C9.84197 41.9996 9.84663 41.9996 9.85128 41.9994C9.85833 41.9992 9.86482 41.9972 9.87187 41.9966C9.89839 41.9948 9.92476 41.9917 9.951 41.986C9.96299 41.9835 9.97455 41.9801 9.98612 41.9769C10.008 41.9708 10.0296 41.9635 10.0507 41.9546C10.0631 41.9494 10.0753 41.9439 10.0871 41.9378C10.1059 41.9284 10.1239 41.9175 10.1417 41.9058C10.154 41.8976 10.1661 41.8894 10.1778 41.8804C10.184 41.8755 10.1911 41.8719 10.1971 41.8667L23.0911 30.9764C23.2958 30.9295 23.4944 30.8994 23.6814 30.8994C23.8684 30.8994 24.0669 30.9295 24.2715 30.9764L37.1654 41.8667C37.1716 41.8719 37.1787 41.8756 37.1852 41.8805C37.1966 41.8894 37.2085 41.8975 37.2207 41.9055C37.2386 41.9174 37.257 41.9282 37.2759 41.9378C37.2877 41.9437 37.2996 41.9492 37.3118 41.9543C37.3331 41.9632 37.355 41.9707 37.377 41.9769C37.3886 41.9801 37.3998 41.9835 37.4117 41.9859C37.4381 41.9915 37.4643 41.9948 37.4911 41.9965C37.498 41.997 37.5045 41.999 37.5116 41.9993C37.5162 41.9994 37.5207 41.9994 37.5255 41.9996C37.5269 41.9996 37.5282 41.9999 37.5295 41.9999C37.5391 41.9999 37.5485 41.9972 37.5581 41.9969C37.5873 41.9953 37.6162 41.9935 37.644 41.9877C37.6574 41.9851 37.67 41.9797 37.6829 41.976C37.7066 41.9693 37.7305 41.9625 37.7529 41.9529C37.7674 41.9467 37.7808 41.9382 37.7949 41.9306C37.8148 41.92 37.8343 41.9093 37.8527 41.8965C37.8661 41.887 37.8786 41.8763 37.8911 41.8656C37.909 41.8505 37.9259 41.8347 37.9419 41.8175C37.9478 41.8111 37.9549 41.8065 37.9605 41.7999C37.9659 41.7934 37.9694 41.786 37.9745 41.7794C37.9863 41.7642 37.9969 41.7482 38.007 41.7319C38.0165 41.7166 38.0257 41.7014 38.0336 41.6856C38.0417 41.6695 38.0482 41.6529 38.0547 41.6357C38.0613 41.6182 38.0677 41.6008 38.0726 41.5831C38.077 41.5664 38.0801 41.5495 38.0831 41.5324C38.0863 41.513 38.0894 41.4938 38.0907 41.4742C38.0913 41.4673 38.0932 41.4606 38.0935 41.4536L38.3429 33.733L45.9136 32.196C45.9147 32.1957 45.9157 32.1951 45.9167 32.195C45.9315 32.1919 45.9455 32.1858 45.96 32.1815C45.9833 32.1747 46.0068 32.1683 46.0284 32.1589C46.0419 32.153 46.0542 32.1446 46.0672 32.1377C46.0886 32.1262 46.1102 32.1147 46.1297 32.1005C46.1421 32.0916 46.1532 32.0809 46.1649 32.071C46.1835 32.0552 46.2016 32.0389 46.2178 32.021C46.2223 32.016 46.228 32.0123 46.2325 32.0071C46.2398 31.9984 46.2446 31.9885 46.2514 31.9796C46.2624 31.965 46.2728 31.9501 46.2824 31.9345C46.2926 31.9176 46.3017 31.9005 46.3099 31.8829C46.317 31.8679 46.3235 31.8528 46.3293 31.8373C46.3363 31.8183 46.3421 31.7991 46.3469 31.7798C46.3508 31.764 46.3542 31.7482 46.3568 31.7319C46.3599 31.7116 46.3618 31.6916 46.3628 31.6713C46.3637 31.6554 46.3639 31.6394 46.3634 31.6233C46.3627 31.6015 46.3603 31.5798 46.3569 31.5582C46.3555 31.5492 46.3559 31.54 46.3541 31.531C46.3528 31.5249 46.3501 31.5197 46.3487 31.5138C46.3436 31.4922 46.3367 31.4713 46.3291 31.4504C46.3237 31.4358 46.3187 31.4212 46.3122 31.4071C46.3037 31.3889 46.2936 31.3717 46.2833 31.3544C46.2744 31.3396 46.2656 31.3248 46.2555 31.3108C46.2449 31.2961 46.2328 31.2827 46.2205 31.269C46.2075 31.2544 46.1943 31.2401 46.18 31.227C46.1748 31.2224 46.171 31.2167 46.1655 31.2122L37.3134 23.7346C37.3055 23.4779 37.2891 23.2193 37.2725 22.9626C37.2241 22.2166 37.1784 21.512 37.3546 20.9694C37.519 20.4623 37.9577 19.9389 38.422 19.3848C39.1062 18.5681 39.8815 17.6427 39.8815 16.5266C39.8815 15.4104 39.1061 14.4849 38.4219 13.6682C37.9575 13.114 37.5192 12.5908 37.3546 12.084C37.1784 11.5415 37.2241 10.8369 37.2725 10.091C37.3434 8.9978 37.4168 7.86718 36.7879 7.00314C36.1525 6.12994 35.0484 5.85067 33.9805 5.58071C33.2612 5.39876 32.5819 5.22697 32.1296 4.89791C31.6864 4.57534 31.3183 3.98775 30.9284 3.36574C30.3394 2.42568 29.7304 1.45374 28.6885 1.11552C28.4523 1.03893 28.1968 1 27.9288 1C27.1668 1 26.3909 1.30917 25.6405 1.60804C24.9666 1.87659 24.2696 2.15431 23.6813 2.15431C23.0927 2.15431 22.3957 1.87659 21.7216 1.60804C20.9712 1.30917 20.1955 1 19.4334 1C19.1657 1 18.9102 1.03893 18.6739 1.11552C17.6323 1.45374 17.0231 2.42568 16.4343 3.3656C16.0444 3.98761 15.6761 4.5752 15.233 4.89777C14.7807 5.22683 14.1014 5.39862 13.3822 5.58057C12.3143 5.85053 11.2102 6.1298 10.5747 7.003C9.94592 7.86704 10.0194 8.99752 10.0904 10.0908C10.1387 10.8369 10.1844 11.5415 10.0083 12.084C9.84367 12.5909 9.40516 13.1143 8.9407 13.6685C8.25649 14.485 7.48102 15.4105 7.48102 16.5266C7.48102 17.6429 8.25663 18.5684 8.94084 19.385C9.40516 19.9392 9.84381 20.4626 10.0083 20.9694C10.1844 21.512 10.1387 22.2166 10.0904 22.9626C10.0737 23.2191 10.0573 23.4776 10.0494 23.7344L1.19833 31.2122C1.19367 31.216 1.19043 31.2209 1.18606 31.2249C1.16885 31.2401 1.15348 31.2571 1.13824 31.2744C1.12879 31.2853 1.11906 31.2958 1.1106 31.3073C1.09748 31.3248 1.08634 31.3435 1.07534 31.3626C1.06772 31.3758 1.05996 31.3888 1.05348 31.4023C1.04473 31.4209 1.03782 31.4404 1.03091 31.4602C1.02541 31.4758 1.02019 31.4915 1.01624 31.5077C1.01427 31.5157 1.0106 31.5228 1.00905 31.531C1.00651 31.5434 1.00693 31.5556 1.00538 31.5679C1.00326 31.584 1.00129 31.6001 1.00058 31.6163C0.999597 31.6379 0.999879 31.659 1.00129 31.6802C1.00228 31.6957 1.00355 31.7101 1.0058 31.7249ZM44.547 31.3226L37.681 32.7166C37.6623 32.7202 37.6455 32.7276 37.6279 32.7329C37.6123 32.7377 37.5962 32.7415 37.5812 32.7476C37.5642 32.7545 37.5486 32.7635 37.5324 32.772C37.5152 32.7809 37.4979 32.7892 37.4819 32.7997C37.4702 32.8076 37.4599 32.8167 37.4489 32.8253C37.4306 32.8394 37.4123 32.8535 37.3959 32.8698C37.3884 32.8771 37.3824 32.8853 37.3753 32.893C37.358 32.9124 37.341 32.932 37.3264 32.9537C37.3209 32.9617 37.3168 32.9705 37.3117 32.9788C37.2983 33.0009 37.2853 33.0232 37.275 33.0473C37.2697 33.0599 37.2663 33.0733 37.2618 33.086C37.2547 33.1067 37.2472 33.1272 37.2426 33.1487C37.2384 33.1682 37.2369 33.1881 37.2347 33.208C37.2331 33.2226 37.2295 33.2363 37.229 33.2513L37.0028 40.2536L27.1915 31.9668C27.4377 32.02 27.6838 32.0542 27.9287 32.0542C28.1965 32.0542 28.4521 32.0154 28.6884 31.9387C29.7301 31.6004 30.339 30.6284 30.928 29.6886C31.3179 29.0665 31.686 28.4789 32.1293 28.1563C32.5815 27.8273 33.2608 27.6555 33.9799 27.4737C35.0478 27.2036 36.1522 26.9243 36.7876 26.051C36.9948 25.7662 37.1247 25.4524 37.2046 25.1206L44.547 31.3226ZM9.80572 18.6609C9.19049 17.9268 8.60952 17.2333 8.60952 16.5273C8.60952 15.8214 9.19063 15.128 9.80572 14.3939C10.3188 13.7816 10.8495 13.1483 11.0816 12.4332C11.3245 11.685 11.2696 10.8377 11.2165 10.0184C11.1558 9.08412 11.0985 8.20174 11.4871 7.66761C11.8825 7.1243 12.7454 6.90625 13.6589 6.67522C14.4503 6.47507 15.2687 6.26816 15.897 5.81089C16.5166 5.35998 16.9608 4.65108 17.3904 3.96561C17.8945 3.16109 18.3708 2.40114 19.0224 2.18957C19.1477 2.14881 19.2821 2.12906 19.4334 2.12906C19.979 2.12906 20.6226 2.38548 21.304 2.65699C22.0769 2.96489 22.8762 3.28337 23.6813 3.28337C24.4861 3.28337 25.2852 2.96503 26.0582 2.65713C26.7395 2.38562 27.3833 2.1292 27.9288 2.1292C28.0803 2.1292 28.2147 2.14895 28.34 2.18971C28.9918 2.40128 29.4681 3.16123 29.9722 3.96589C30.4018 4.65137 30.8459 5.36026 31.4655 5.81118C32.094 6.26859 32.9124 6.4755 33.7038 6.67564C34.6173 6.90667 35.4801 7.12487 35.8753 7.66817C36.2642 8.20245 36.2069 9.08482 36.1462 10.019C36.0932 10.8383 36.0382 11.6853 36.2811 12.4335C36.5132 13.1486 37.0437 13.7818 37.5568 14.3939C38.1719 15.1282 38.7529 15.8215 38.7529 16.5276C38.7529 17.2334 38.1719 17.9269 37.557 18.6611C37.0439 19.2735 36.5134 19.9068 36.2811 20.6219C36.0382 21.3702 36.0931 22.2174 36.1462 23.0365C36.2069 23.9707 36.264 24.8531 35.8753 25.3872C35.4799 25.9308 34.617 26.1488 33.7035 26.3799C32.9122 26.5799 32.0939 26.7868 31.4654 27.244C30.8458 27.6951 30.4016 28.4041 29.972 29.0896C29.4679 29.8941 28.9918 30.6539 28.3401 30.8657C28.2149 30.9063 28.0805 30.9262 27.929 30.9262C27.3834 30.9262 26.7398 30.6697 26.0584 30.3984C25.6143 30.2214 25.1614 30.0429 24.7039 29.9215C24.6982 29.9197 24.6924 29.9185 24.6868 29.917C24.3536 29.8297 24.0181 29.7721 23.6814 29.7721C23.3452 29.7721 23.0099 29.8295 22.6772 29.9167C22.671 29.9185 22.6646 29.9197 22.6584 29.9216C22.201 30.0431 21.7483 30.2214 21.3043 30.3982C20.6229 30.6697 19.9791 30.926 19.4336 30.9262C19.2822 30.9262 19.1478 30.9063 19.0226 30.8657C18.3708 30.6541 17.8946 29.8941 17.3905 29.0896C16.9609 28.404 16.5166 27.695 15.897 27.244C15.2687 26.7868 14.4505 26.5799 13.6591 26.3799C12.7454 26.1488 11.8826 25.9306 11.4871 25.3872C11.0985 24.8531 11.1557 23.9708 11.2165 23.0367C11.2696 22.2174 11.3246 21.3702 11.0816 20.6219C10.8495 19.9065 10.3188 19.2732 9.80572 18.6609ZM10.1579 25.1206C10.2377 25.4522 10.3676 25.7662 10.5748 26.0508C11.2104 26.9242 12.3146 27.2034 13.3826 27.4735C14.1018 27.6553 14.7809 27.8271 15.2333 28.1562C15.6766 28.4788 16.0447 29.0663 16.4347 29.6885C17.0237 30.6283 17.6327 31.6002 18.6743 31.9386C18.9106 32.0153 19.1662 32.0541 19.4339 32.0541C19.6786 32.0541 19.9248 32.0198 20.1712 31.9665L10.3597 40.2534L10.1335 33.2511C10.1331 33.2372 10.1296 33.2245 10.1282 33.2109C10.1259 33.1896 10.1242 33.1681 10.1195 33.1475C10.1159 33.131 10.1101 33.1156 10.105 33.0998C10.099 33.0805 10.0933 33.0613 10.0851 33.0428C10.0792 33.0293 10.0716 33.017 10.0645 33.0043C10.0538 32.9843 10.0431 32.9645 10.0301 32.9459C10.0246 32.9382 10.0183 32.9314 10.0125 32.9241C9.99515 32.9019 9.97723 32.8806 9.95664 32.8612C9.95438 32.859 9.95185 32.8573 9.94959 32.8552C9.87653 32.7879 9.78626 32.7379 9.68189 32.7167L2.81696 31.3229L10.1579 25.1206Z" fill="#BB9078"/>
<path d="M1.0058 31.7249C1.00891 31.7465 1.01342 31.7676 1.01892 31.7884C1.02273 31.8028 1.02696 31.8167 1.0319 31.8308C1.03923 31.8514 1.04769 31.8713 1.05743 31.891C1.06377 31.9042 1.07054 31.9171 1.07802 31.9297C1.08987 31.9497 1.10312 31.9685 1.11723 31.987C1.12245 31.9937 1.12597 32.0012 1.13161 32.0077C1.135 32.0116 1.13923 32.0143 1.14262 32.0181C1.16194 32.0397 1.1831 32.0592 1.20552 32.0776C1.21427 32.085 1.22245 32.0927 1.23147 32.0994C1.25503 32.1164 1.28056 32.1308 1.30693 32.1441C1.31596 32.1487 1.32442 32.1545 1.33359 32.1588C1.35997 32.1705 1.38818 32.1786 1.41667 32.1861C1.42668 32.1889 1.43613 32.1932 1.44614 32.1953C1.44741 32.1956 1.44854 32.1961 1.44967 32.1964L9.01968 33.7332L9.26919 41.454C9.26933 41.4611 9.27145 41.4677 9.27187 41.4746C9.27314 41.4941 9.2761 41.5131 9.27949 41.5324C9.28245 41.5498 9.28555 41.5669 9.29006 41.5835C9.29486 41.6011 9.30121 41.6183 9.30769 41.6355C9.31432 41.6528 9.32095 41.6698 9.32913 41.686C9.33689 41.7016 9.34592 41.7165 9.35509 41.7315C9.36552 41.7482 9.37624 41.7643 9.38837 41.78C9.39345 41.7865 9.39669 41.7937 9.40205 41.8C9.40755 41.8066 9.41446 41.811 9.42025 41.8172C9.43633 41.8347 9.45354 41.8506 9.47173 41.866C9.48428 41.8766 9.49655 41.887 9.50981 41.8965C9.52829 41.9095 9.54803 41.9203 9.56806 41.931C9.58203 41.9385 9.59528 41.9468 9.60967 41.953C9.63224 41.9628 9.65622 41.9695 9.68019 41.9763C9.69303 41.9798 9.70544 41.9852 9.71856 41.9879C9.74663 41.9938 9.77596 41.9958 9.80544 41.997C9.81475 41.9976 9.82392 42 9.83337 42C9.83478 42 9.83605 41.9997 9.83732 41.9997C9.84197 41.9996 9.84663 41.9996 9.85128 41.9994C9.85833 41.9992 9.86482 41.9972 9.87187 41.9966C9.89839 41.9948 9.92476 41.9917 9.951 41.986C9.96299 41.9835 9.97455 41.9801 9.98612 41.9769C10.008 41.9708 10.0296 41.9635 10.0507 41.9546C10.0631 41.9494 10.0753 41.9439 10.0871 41.9378C10.1059 41.9284 10.1239 41.9175 10.1417 41.9058C10.154 41.8976 10.1661 41.8894 10.1778 41.8804C10.184 41.8755 10.1911 41.8719 10.1971 41.8667L23.0911 30.9764C23.2958 30.9295 23.4944 30.8994 23.6814 30.8994C23.8684 30.8994 24.0669 30.9295 24.2715 30.9764L37.1654 41.8667C37.1716 41.8719 37.1787 41.8756 37.1852 41.8805C37.1966 41.8894 37.2085 41.8975 37.2207 41.9055C37.2386 41.9174 37.257 41.9282 37.2759 41.9378C37.2877 41.9437 37.2996 41.9492 37.3118 41.9543C37.3331 41.9632 37.355 41.9707 37.377 41.9769C37.3886 41.9801 37.3998 41.9835 37.4117 41.9859C37.4381 41.9915 37.4643 41.9948 37.4911 41.9965C37.498 41.997 37.5045 41.999 37.5116 41.9993C37.5162 41.9994 37.5207 41.9994 37.5255 41.9996C37.5269 41.9996 37.5282 41.9999 37.5295 41.9999C37.5391 41.9999 37.5485 41.9972 37.5581 41.9969C37.5873 41.9953 37.6162 41.9935 37.644 41.9877C37.6574 41.9851 37.67 41.9797 37.6829 41.976C37.7066 41.9693 37.7305 41.9625 37.7529 41.9529C37.7674 41.9467 37.7808 41.9382 37.7949 41.9306C37.8148 41.92 37.8343 41.9093 37.8527 41.8965C37.8661 41.887 37.8786 41.8763 37.8911 41.8656C37.909 41.8505 37.9259 41.8347 37.9419 41.8175C37.9478 41.8111 37.9549 41.8065 37.9605 41.7999C37.9659 41.7934 37.9694 41.786 37.9745 41.7794C37.9863 41.7642 37.9969 41.7482 38.007 41.7319C38.0165 41.7166 38.0257 41.7014 38.0336 41.6856C38.0417 41.6695 38.0482 41.6529 38.0547 41.6357C38.0613 41.6182 38.0677 41.6008 38.0726 41.5831C38.077 41.5664 38.0801 41.5495 38.0831 41.5324C38.0863 41.513 38.0894 41.4938 38.0907 41.4742C38.0913 41.4673 38.0932 41.4606 38.0935 41.4536L38.3429 33.733L45.9136 32.196C45.9147 32.1957 45.9157 32.1951 45.9167 32.195C45.9315 32.1919 45.9455 32.1858 45.96 32.1815C45.9833 32.1747 46.0068 32.1683 46.0284 32.1589C46.0419 32.153 46.0542 32.1446 46.0672 32.1377C46.0886 32.1262 46.1102 32.1147 46.1297 32.1005C46.1421 32.0916 46.1532 32.0809 46.1649 32.071C46.1835 32.0552 46.2016 32.0389 46.2178 32.021C46.2223 32.016 46.228 32.0123 46.2325 32.0071C46.2398 31.9984 46.2446 31.9885 46.2514 31.9796C46.2624 31.965 46.2728 31.9501 46.2824 31.9345C46.2926 31.9176 46.3017 31.9005 46.3099 31.8829C46.317 31.8679 46.3235 31.8528 46.3293 31.8373C46.3363 31.8183 46.3421 31.7991 46.3469 31.7798C46.3508 31.764 46.3542 31.7482 46.3568 31.7319C46.3599 31.7116 46.3618 31.6916 46.3628 31.6713C46.3637 31.6554 46.3639 31.6394 46.3634 31.6233C46.3627 31.6015 46.3603 31.5798 46.3569 31.5582C46.3555 31.5492 46.3559 31.54 46.3541 31.531C46.3528 31.5249 46.3501 31.5197 46.3487 31.5138C46.3436 31.4922 46.3367 31.4713 46.3291 31.4504C46.3237 31.4358 46.3187 31.4212 46.3122 31.4071C46.3037 31.3889 46.2936 31.3717 46.2833 31.3544C46.2744 31.3396 46.2656 31.3248 46.2555 31.3108C46.2449 31.2961 46.2328 31.2827 46.2205 31.269C46.2075 31.2544 46.1943 31.2401 46.18 31.227C46.1748 31.2224 46.171 31.2167 46.1655 31.2122L37.3134 23.7346C37.3055 23.4779 37.2891 23.2193 37.2725 22.9626C37.2241 22.2166 37.1784 21.512 37.3546 20.9694C37.519 20.4623 37.9577 19.9389 38.422 19.3848C39.1062 18.5681 39.8815 17.6427 39.8815 16.5266C39.8815 15.4104 39.1061 14.4849 38.4219 13.6682C37.9575 13.114 37.5192 12.5908 37.3546 12.084C37.1784 11.5415 37.2241 10.8369 37.2725 10.091C37.3434 8.9978 37.4168 7.86718 36.7879 7.00314C36.1525 6.12994 35.0484 5.85067 33.9805 5.58071C33.2612 5.39876 32.5819 5.22697 32.1296 4.89791C31.6864 4.57534 31.3183 3.98775 30.9284 3.36574C30.3394 2.42568 29.7304 1.45374 28.6885 1.11552C28.4523 1.03893 28.1968 1 27.9288 1C27.1668 1 26.3909 1.30917 25.6405 1.60804C24.9666 1.87659 24.2696 2.15431 23.6813 2.15431C23.0927 2.15431 22.3957 1.87659 21.7216 1.60804C20.9712 1.30917 20.1955 1 19.4334 1C19.1657 1 18.9102 1.03893 18.6739 1.11552C17.6323 1.45374 17.0231 2.42568 16.4343 3.3656C16.0444 3.98761 15.6761 4.5752 15.233 4.89777C14.7807 5.22683 14.1014 5.39862 13.3822 5.58057C12.3143 5.85053 11.2102 6.1298 10.5747 7.003C9.94592 7.86704 10.0194 8.99752 10.0904 10.0908C10.1387 10.8369 10.1844 11.5415 10.0083 12.084C9.84367 12.5909 9.40516 13.1143 8.9407 13.6685C8.25649 14.485 7.48102 15.4105 7.48102 16.5266C7.48102 17.6429 8.25663 18.5684 8.94084 19.385C9.40516 19.9392 9.84381 20.4626 10.0083 20.9694C10.1844 21.512 10.1387 22.2166 10.0904 22.9626C10.0737 23.2191 10.0573 23.4776 10.0494 23.7344L1.19833 31.2122C1.19367 31.216 1.19043 31.2209 1.18606 31.2249C1.16885 31.2401 1.15348 31.2571 1.13824 31.2744C1.12879 31.2853 1.11906 31.2958 1.1106 31.3073C1.09748 31.3248 1.08634 31.3435 1.07534 31.3626C1.06772 31.3758 1.05996 31.3888 1.05348 31.4023C1.04473 31.4209 1.03782 31.4404 1.03091 31.4602C1.02541 31.4758 1.02019 31.4915 1.01624 31.5077C1.01427 31.5157 1.0106 31.5228 1.00905 31.531C1.00651 31.5434 1.00693 31.5556 1.00538 31.5679C1.00326 31.584 1.00129 31.6001 1.00058 31.6163C0.999597 31.6379 0.999879 31.659 1.00129 31.6802C1.00228 31.6957 1.00355 31.7101 1.0058 31.7249ZM44.547 31.3226L37.681 32.7166C37.6623 32.7202 37.6455 32.7276 37.6279 32.7329C37.6123 32.7377 37.5962 32.7415 37.5812 32.7476C37.5642 32.7545 37.5486 32.7635 37.5324 32.772C37.5152 32.7809 37.4979 32.7892 37.4819 32.7997C37.4702 32.8076 37.4599 32.8167 37.4489 32.8253C37.4306 32.8394 37.4123 32.8535 37.3959 32.8698C37.3884 32.8771 37.3824 32.8853 37.3753 32.893C37.358 32.9124 37.341 32.932 37.3264 32.9537C37.3209 32.9617 37.3168 32.9705 37.3117 32.9788C37.2983 33.0009 37.2853 33.0232 37.275 33.0473C37.2697 33.0599 37.2663 33.0733 37.2618 33.086C37.2547 33.1067 37.2472 33.1272 37.2426 33.1487C37.2384 33.1682 37.2369 33.1881 37.2347 33.208C37.2331 33.2226 37.2295 33.2363 37.229 33.2513L37.0028 40.2536L27.1915 31.9668C27.4377 32.02 27.6838 32.0542 27.9287 32.0542C28.1965 32.0542 28.4521 32.0154 28.6884 31.9387C29.7301 31.6004 30.339 30.6284 30.928 29.6886C31.3179 29.0665 31.686 28.4789 32.1293 28.1563C32.5815 27.8273 33.2608 27.6555 33.9799 27.4737C35.0478 27.2036 36.1522 26.9243 36.7876 26.051C36.9948 25.7662 37.1247 25.4524 37.2046 25.1206L44.547 31.3226ZM9.80572 18.6609C9.19049 17.9268 8.60952 17.2333 8.60952 16.5273C8.60952 15.8214 9.19063 15.128 9.80572 14.3939C10.3188 13.7816 10.8495 13.1483 11.0816 12.4332C11.3245 11.685 11.2696 10.8377 11.2165 10.0184C11.1558 9.08412 11.0985 8.20174 11.4871 7.66761C11.8825 7.1243 12.7454 6.90625 13.6589 6.67522C14.4503 6.47507 15.2687 6.26816 15.897 5.81089C16.5166 5.35998 16.9608 4.65108 17.3904 3.96561C17.8945 3.16109 18.3708 2.40114 19.0224 2.18957C19.1477 2.14881 19.2821 2.12906 19.4334 2.12906C19.979 2.12906 20.6226 2.38548 21.304 2.65699C22.0769 2.96489 22.8762 3.28337 23.6813 3.28337C24.4861 3.28337 25.2852 2.96503 26.0582 2.65713C26.7395 2.38562 27.3833 2.1292 27.9288 2.1292C28.0803 2.1292 28.2147 2.14895 28.34 2.18971C28.9918 2.40128 29.4681 3.16123 29.9722 3.96589C30.4018 4.65137 30.8459 5.36026 31.4655 5.81118C32.094 6.26859 32.9124 6.4755 33.7038 6.67564C34.6173 6.90667 35.4801 7.12487 35.8753 7.66817C36.2642 8.20245 36.2069 9.08482 36.1462 10.019C36.0932 10.8383 36.0382 11.6853 36.2811 12.4335C36.5132 13.1486 37.0437 13.7818 37.5568 14.3939C38.1719 15.1282 38.7529 15.8215 38.7529 16.5276C38.7529 17.2334 38.1719 17.9269 37.557 18.6611C37.0439 19.2735 36.5134 19.9068 36.2811 20.6219C36.0382 21.3702 36.0931 22.2174 36.1462 23.0365C36.2069 23.9707 36.264 24.8531 35.8753 25.3872C35.4799 25.9308 34.617 26.1488 33.7035 26.3799C32.9122 26.5799 32.0939 26.7868 31.4654 27.244C30.8458 27.6951 30.4016 28.4041 29.972 29.0896C29.4679 29.8941 28.9918 30.6539 28.3401 30.8657C28.2149 30.9063 28.0805 30.9262 27.929 30.9262C27.3834 30.9262 26.7398 30.6697 26.0584 30.3984C25.6143 30.2214 25.1614 30.0429 24.7039 29.9215C24.6982 29.9197 24.6924 29.9185 24.6868 29.917C24.3536 29.8297 24.0181 29.7721 23.6814 29.7721C23.3452 29.7721 23.0099 29.8295 22.6772 29.9167C22.671 29.9185 22.6646 29.9197 22.6584 29.9216C22.201 30.0431 21.7483 30.2214 21.3043 30.3982C20.6229 30.6697 19.9791 30.926 19.4336 30.9262C19.2822 30.9262 19.1478 30.9063 19.0226 30.8657C18.3708 30.6541 17.8946 29.8941 17.3905 29.0896C16.9609 28.404 16.5166 27.695 15.897 27.244C15.2687 26.7868 14.4505 26.5799 13.6591 26.3799C12.7454 26.1488 11.8826 25.9306 11.4871 25.3872C11.0985 24.8531 11.1557 23.9708 11.2165 23.0367C11.2696 22.2174 11.3246 21.3702 11.0816 20.6219C10.8495 19.9065 10.3188 19.2732 9.80572 18.6609ZM10.1579 25.1206C10.2377 25.4522 10.3676 25.7662 10.5748 26.0508C11.2104 26.9242 12.3146 27.2034 13.3826 27.4735C14.1018 27.6553 14.7809 27.8271 15.2333 28.1562C15.6766 28.4788 16.0447 29.0663 16.4347 29.6885C17.0237 30.6283 17.6327 31.6002 18.6743 31.9386C18.9106 32.0153 19.1662 32.0541 19.4339 32.0541C19.6786 32.0541 19.9248 32.0198 20.1712 31.9665L10.3597 40.2534L10.1335 33.2511C10.1331 33.2372 10.1296 33.2245 10.1282 33.2109C10.1259 33.1896 10.1242 33.1681 10.1195 33.1475C10.1159 33.131 10.1101 33.1156 10.105 33.0998C10.099 33.0805 10.0933 33.0613 10.0851 33.0428C10.0792 33.0293 10.0716 33.017 10.0645 33.0043C10.0538 32.9843 10.0431 32.9645 10.0301 32.9459C10.0246 32.9382 10.0183 32.9314 10.0125 32.9241C9.99515 32.9019 9.97723 32.8806 9.95664 32.8612C9.95438 32.859 9.95185 32.8573 9.94959 32.8552C9.87653 32.7879 9.78626 32.7379 9.68189 32.7167L2.81696 31.3229L10.1579 25.1206Z" stroke="#BB9078" stroke-width="0.4" mask="url(#path-2-outside-1_79_98)"/>
</svg>
