<svg width="22" height="22" viewBox="0 0 22 22" fill="none" xmlns="http://www.w3.org/2000/svg">
<path d="M16.1482 14.2219C17.4797 12.4049 18.0761 10.1522 17.818 7.91435C17.5599 5.67652 16.4664 3.61867 14.7562 2.15248C13.046 0.68629 10.8453 -0.0801007 8.59427 0.0066338C6.34328 0.0933683 4.20805 1.02683 2.61575 2.62027C1.02345 4.21371 0.0915134 6.34961 0.00638964 8.60066C-0.0787342 10.8517 0.689231 13.0519 2.15664 14.761C3.62405 16.4702 5.68269 17.5622 7.9207 17.8187C10.1587 18.0752 12.411 17.4772 14.2271 16.1444H14.2257C14.267 16.1994 14.311 16.2516 14.3605 16.3025L19.6548 21.5968C19.9126 21.8548 20.2624 21.9999 20.6272 22C20.992 22.0001 21.3419 21.8553 21.5999 21.5975C21.8579 21.3396 22.003 20.9899 22.0031 20.6251C22.0032 20.2603 21.8584 19.9104 21.6006 19.6524L16.3063 14.3581C16.2571 14.3083 16.2043 14.2637 16.1482 14.2219ZM16.5029 8.93587C16.5029 9.9291 16.3073 10.9126 15.9272 11.8302C15.5471 12.7478 14.99 13.5816 14.2877 14.2839C13.5854 14.9862 12.7516 15.5433 11.834 15.9234C10.9164 16.3035 9.93288 16.4992 8.93966 16.4992C7.94643 16.4992 6.96293 16.3035 6.04532 15.9234C5.1277 15.5433 4.29393 14.9862 3.59161 14.2839C2.88929 13.5816 2.33219 12.7478 1.9521 11.8302C1.57201 10.9126 1.37638 9.9291 1.37638 8.93587C1.37638 6.92997 2.17322 5.00622 3.59161 3.58783C5.01 2.16944 6.93375 1.37259 8.93966 1.37259C10.9456 1.37259 12.8693 2.16944 14.2877 3.58783C15.7061 5.00622 16.5029 6.92997 16.5029 8.93587Z" fill="#838383"/>
</svg>
